<?xml version="1.0" encoding="UTF-8" standalone="no"?>
<svg width="206px" height="58px" viewBox="0 0 206 58" version="1.1" xmlns="http://www.w3.org/2000/svg" xmlns:xlink="http://www.w3.org/1999/xlink">
    <!-- Generator: Sketch 49.2 (51160) - http://www.bohemiancoding.com/sketch -->
    <title>logo/norm</title>
    <desc>Created with Sketch.</desc>
    <defs></defs>
    <g id="logo/norm" stroke="none" stroke-width="1" fill="none" fill-rule="evenodd">
        <path d="M51.0943396,56.8671875 C50.7924528,56.8671875 50.6415094,56.7161458 50.490566,56.7161458 C50.3396226,56.7161458 50.2641509,56.640625 50.2641509,56.640625 C49.9622642,56.640625 49.8113208,56.640625 49.8113208,56.4895833 C49.6603774,56.4895833 49.6603774,56.3385417 49.509434,56.3385417 C49.0566038,56.3385417 48.9056604,56.1875 48.6037736,56.0364583 C48.3018868,55.8854167 48.1509434,55.8854167 47.8490566,55.734375 C47.5471698,55.734375 47.3962264,55.5833333 47.0943396,55.4322917 C46.7924528,55.28125 46.490566,55.28125 46.3396226,55.1302083 C46.0377358,55.1302083 45.8867925,55.1302083 45.7358491,54.9791667 C45.5849057,54.9791667 45.5849057,54.9791667 45.4339623,54.9791667 C45.2830189,54.9791667 45.2830189,54.9791667 45.1320755,54.9791667 C44.8301887,54.9791667 44.5283019,54.9791667 44.3773585,54.828125 C44.2264151,54.828125 43.9245283,54.828125 43.7735849,54.828125 C43.1698113,54.828125 42.8679245,54.828125 42.490566,54.828125 C42.1886792,54.828125 41.8867925,54.828125 41.7358491,54.828125 C41.2830189,54.828125 41.1320755,54.6770833 40.9056604,54.375 C40.754717,54.0729167 40.3018868,53.6197917 40.1509434,53.3932292 C40,53.0911458 39.6981132,52.7890625 39.5471698,52.5625 C39.3962264,52.4114583 39.3962264,52.2604167 39.245283,52.109375 C38.9433962,51.65625 38.7924528,51.3541667 38.6415094,51.203125 C38.490566,51.0520833 38.490566,50.9010417 38.3396226,50.5989583 C38.1886792,50.4479167 38.1886792,50.1458333 38.0377358,49.9947917 C37.8867925,49.5416667 37.7358491,49.2395833 37.7358491,49.0130208 C37.7358491,48.7109375 37.7358491,48.5598958 37.7358491,48.2578125 C37.7358491,48.1067708 37.7358491,48.1067708 37.5849057,47.9557292 C37.4339623,47.5026042 37.2830189,47.0494792 36.9811321,46.8229167 C36.8301887,46.5208333 36.6792453,46.21875 36.5283019,46.0677083 C36.3773585,45.765625 36.2264151,45.4635417 36.0754717,45.3125 C36.0754717,45.1614583 35.9245283,45.1614583 35.9245283,45.0104167 C35.9245283,44.859375 35.7735849,44.7083333 35.7735849,44.7083333 C35.6226415,44.40625 35.4716981,44.40625 35.4716981,44.2552083 C35.4716981,44.1041667 35.3207547,43.953125 35.3207547,43.8020833 C35.3207547,43.6510417 35.3207547,43.6510417 35.3207547,43.5 C35.1698113,43.046875 35.3207547,42.6692708 35.0188679,42.2161458 C35.0188679,41.7630208 34.8679245,41.4609375 34.7169811,41.234375 C34.7169811,41.0833333 34.5660377,40.78125 34.4150943,40.6302083 C34.2641509,40.328125 34.2641509,40.1770833 34.1132075,39.875 C34.1132075,39.5729167 33.8113208,39.2708333 33.8113208,39.0442708 C33.8113208,38.7421875 33.6603774,38.4401042 33.8113208,38.2135417 C33.8113208,38.0625 33.9622642,37.9114583 33.9622642,37.9114583 C34.1132075,37.7604167 34.2641509,37.4583333 34.2641509,37.3072917 C34.2641509,37.0052083 34.4150943,36.8541667 34.4150943,36.703125 C34.4150943,36.703125 34.4150943,36.6024306 34.4150943,36.4010417 C34.4150943,36.0989583 34.4150943,36.0989583 34.4150943,35.9479167 C34.4150943,35.4947917 34.4150943,35.1171875 34.4150943,34.8151042 C34.4150943,33.8333333 34.4150943,32.9270833 34.4150943,32.0963542 C34.4150943,31.9453125 34.4150943,31.9453125 34.4150943,31.7942708 C34.4150943,31.3411458 34.2641509,31.1901042 34.1132075,31.0390625 C33.8113208,30.8880208 33.6603774,30.7369792 33.509434,30.4348958 C33.2075472,30.1328125 32.9056604,29.6796875 32.754717,29.3020833 C32.754717,29.1510417 32.754717,29 32.754717,28.8489583 C32.754717,28.546875 32.754717,28.3958333 32.754717,28.09375 C32.754717,27.9427083 32.754717,27.7916667 32.754717,27.640625 C32.754717,27.1875 32.754717,26.8854167 32.754717,26.5078125 C32.754717,25.9036458 32.754717,25.375 32.754717,24.7708333 C32.754717,24.46875 32.754717,24.46875 32.754717,24.3177083 C32.754717,24.015625 32.754717,24.015625 32.754717,23.8645833 C32.754717,23.7135417 32.754717,23.7135417 32.754717,23.5625 L32.754717,23.2604167 C32.754717,23.2604167 32.754717,23.1597222 32.754717,22.9583333 C32.754717,22.8072917 32.6037736,22.65625 32.6037736,22.5052083 C32.3018868,21.75 32,21.3723958 31.7735849,20.7682292 C31.6226415,20.4661458 31.4716981,20.3151042 31.3207547,20.0130208 C31.1698113,19.8619792 31.1698113,19.5598958 31.0188679,19.2578125 C30.8679245,18.9557292 30.8679245,18.8046875 30.7169811,18.5026042 C30.7169811,18.2005208 30.5660377,18.0494792 30.5660377,17.7473958 C30.5660377,17.5963542 30.4150943,17.4453125 30.4150943,17.1432292 L30.4150943,16.8411458 C30.4150943,16.6901042 30.2641509,16.5390625 30.2641509,16.3880208 C30.2641509,16.3880208 30.2641509,16.2873264 30.2641509,16.0859375 C30.1132075,15.7838542 30.1132075,15.4817708 30.1132075,15.3307292 C29.9622642,15.0286458 29.8113208,14.5755208 29.6603774,14.3489583 C29.6603774,14.1979167 29.6603774,14.046875 29.8113208,13.8958333 C30.1132075,13.59375 30.1132075,13.59375 30.2641509,13.4427083 C30.4150943,13.2916667 30.4150943,13.2916667 30.5660377,13.140625 C30.5660377,12.9895833 30.7169811,12.9895833 30.7169811,12.8385417 C30.7169811,12.6875 30.7169811,12.6875 30.8679245,12.5364583 C30.8679245,11.9322917 31.1698113,11.5546875 31.6226415,11.2526042 C31.9245283,10.9505208 32.2264151,10.7994792 32.4528302,10.6484375 C32.754717,10.4973958 33.2075472,10.1953125 33.5849057,10.1953125 C33.8867925,9.89322917 33.8867925,9.89322917 34.0377358,9.7421875 C34.1886792,9.59114583 34.1886792,9.44010417 34.0377358,9.44010417 C33.7358491,9.44010417 33.4339623,9.44010417 33.2830189,9.44010417 C32.9811321,9.44010417 32.9811321,9.44010417 32.8301887,9.59114583 C32.6792453,9.44010417 32.6792453,9.44010417 32.6792453,9.2890625 C32.8301887,9.13802083 32.9811321,8.8359375 33.2830189,8.8359375 C33.4339623,8.68489583 33.5849057,8.68489583 33.7358491,8.68489583 C33.8867925,8.68489583 34.0377358,8.53385417 34.1886792,8.3828125 C34.1886792,8.23177083 34.1886792,8.08072917 34.0377358,7.9296875 C33.7358491,7.9296875 33.5849057,7.77864583 33.5849057,7.4765625 C33.5849057,7.32552083 33.4339623,7.17447917 33.4339623,7.0234375 C33.2830189,7.0234375 33.2830189,6.87239583 33.1320755,6.87239583 C32.9811321,6.87239583 32.8301887,6.87239583 32.6792453,6.87239583 C32.3773585,7.0234375 32.0754717,7.0234375 31.9245283,7.0234375 C31.7735849,7.17447917 31.4716981,7.17447917 31.3207547,7.32552083 C31.0188679,7.32552083 30.8679245,7.4765625 30.5660377,7.62760417 C30.2641509,7.62760417 30.2641509,7.62760417 30.1132075,7.77864583 C29.8113208,7.77864583 29.509434,7.9296875 29.3584906,8.08072917 C28.9056604,8.08072917 28.6037736,8.23177083 28.3773585,8.3828125 C28.0754717,8.3828125 27.9245283,8.53385417 27.6226415,8.68489583 C27.4716981,8.68489583 27.4716981,8.68489583 27.3207547,8.68489583 C27.1698113,8.68489583 27.0188679,8.68489583 27.0188679,8.8359375 C26.7169811,8.8359375 26.5660377,8.8359375 26.2641509,8.98697917 C25.8113208,9.13802083 25.509434,9.44010417 25.2830189,9.59114583 C25.1320755,9.7421875 24.8301887,9.89322917 24.6792453,9.89322917 C24.5283019,9.89322917 24.3773585,9.89322917 24.2264151,9.89322917 C23.9245283,9.89322917 23.7735849,10.0442708 23.4716981,10.1953125 L23.1698113,10.1953125 C23.1698113,10.1953125 23.0691824,10.1953125 22.8679245,10.1953125 C22.7169811,10.1953125 22.8679245,10.3463542 22.8679245,10.4973958 C22.8679245,10.6484375 22.5660377,10.6484375 22.4150943,10.4973958 C21.9622642,10.4973958 21.8113208,10.3463542 21.509434,10.1953125 C21.3584906,10.1953125 21.3584906,10.0442708 21.2075472,10.1953125 C21.6603774,10.6484375 21.9622642,11.1015625 22.3396226,11.328125 C22.6415094,11.6302083 22.6415094,11.9322917 22.6415094,12.1588542 C22.6415094,12.4609375 22.6415094,12.6119792 22.6415094,12.9140625 C22.6415094,13.2161458 22.6415094,13.5182292 22.490566,13.6692708 C22.3396226,13.8203125 22.3396226,14.1223958 22.3396226,14.2734375 C22.3396226,15.0286458 22.3396226,15.5572917 22.6415094,16.3125 C22.7924528,16.6145833 22.9433962,16.9166667 22.9433962,17.1432292 C22.9433962,17.2942708 23.0943396,17.4453125 23.0943396,17.5963542 C23.245283,17.8984375 23.245283,18.0494792 23.3962264,18.3515625 C23.5471698,18.6536458 23.3962264,18.9557292 23.245283,19.1822917 C22.9433962,19.3333333 22.9433962,19.3333333 22.9433962,19.1822917 C22.6415094,18.578125 22.3396226,18.2005208 22.1886792,17.5963542 C21.8867925,16.9921875 21.5849057,16.4635417 21.4339623,15.7083333 C21.1320755,15.1041667 20.6792453,14.7265625 20.3018868,14.5755208 C20.1509434,14.5755208 19.8490566,14.4244792 19.6981132,14.4244792 C19.3962264,14.2734375 19.3962264,14.1223958 19.3962264,13.8203125 C19.3962264,13.6692708 19.3962264,13.3671875 19.6981132,13.2161458 C20,13.0651042 20.3018868,12.9140625 20.5283019,12.7630208 C20.6792453,12.6119792 20.8301887,12.4609375 20.8301887,12.3098958 C20.9811321,12.0078125 20.9811321,11.7057292 20.8301887,11.5546875 C20.6792453,11.2526042 20.5283019,10.7994792 20.3773585,10.421875 C20.2264151,9.96875 20.0754717,9.59114583 19.7735849,9.13802083 C19.7735849,9.13802083 19.672956,9.03732639 19.4716981,8.8359375 C18.8679245,8.53385417 18.490566,8.53385417 18.0377358,8.53385417 C17.8867925,8.53385417 17.8867925,8.68489583 17.7358491,8.68489583 C17.1320755,9.13802083 16.9811321,9.59114583 16.754717,9.96875 C16.4528302,10.421875 16.3018868,10.9505208 15.9245283,11.4036458 C15.9245283,11.7057292 15.9245283,11.8567708 16.0754717,11.8567708 C16.2264151,12.1588542 16.5283019,12.4609375 16.6792453,12.6119792 C16.8301887,12.7630208 16.9811321,12.9140625 17.1320755,13.0651042 C17.1320755,13.3671875 17.1320755,13.5182292 17.1320755,13.5182292 C17.1320755,13.6692708 17.1320755,13.8203125 17.1320755,13.8203125 C16.9811321,13.9713542 16.9811321,13.8203125 16.8301887,13.8203125 C16.6792453,13.6692708 16.5283019,13.6692708 16.3773585,13.5182292 C17.3584906,14.3489583 17.0566038,14.3489583 16.8301887,14.3489583 C16.6037736,14.3489583 16.3773585,14.5 16.0754717,14.5 C15.9245283,14.5 15.7735849,14.5 15.4716981,14.3489583 C15.3207547,14.1979167 15.0188679,13.8958333 14.8679245,13.7447917 C14.7169811,13.59375 14.5660377,13.4427083 14.5660377,13.4427083 C14.1132075,13.140625 13.8113208,12.8385417 13.5849057,12.6119792 C13.4339623,12.3098958 13.2830189,12.3098958 13.1320755,12.1588542 C12.9811321,12.0078125 12.8301887,11.8567708 12.6792453,11.8567708 C12.0754717,11.2526042 11.6981132,10.875 11.0943396,10.5729167 C10.9433962,10.421875 10.7924528,10.1197917 10.7924528,9.96875 C10.6415094,9.66666667 10.490566,9.36458333 10.3396226,9.13802083 C10.1886792,8.8359375 9.88679245,8.3828125 9.73584906,8.15625 C9.58490566,7.85416667 9.43396226,7.703125 9.13207547,7.55208333 C8.83018868,7.40104167 8.67924528,7.25 8.67924528,6.94791667 C8.67924528,6.64583333 8.52830189,6.34375 8.37735849,6.1171875 C8.45283019,5.890625 8.30188679,5.58854167 8.30188679,5.13541667 C8.30188679,4.984375 8.45283019,4.83333333 8.60377358,4.984375 C8.75471698,4.984375 8.90566038,4.984375 8.90566038,4.984375 C9.05660377,4.984375 9.05660377,4.984375 9.20754717,4.984375 C9.66037736,4.984375 10.0377358,4.984375 10.490566,4.984375 C10.9433962,4.984375 11.3207547,4.984375 11.7735849,4.984375 C11.9245283,4.984375 11.9245283,4.984375 12.0754717,4.984375 C12.0754717,4.984375 12.0754717,4.83333333 12.0754717,4.68229167 C12.0754717,4.53125 11.9245283,4.53125 11.9245283,4.38020833 C11.6226415,3.625 11.4716981,3.09635417 11.0943396,2.64322917 C10.9433962,2.34114583 10.6415094,2.0390625 10.3396226,1.8125 C10.0377358,1.66145833 9.88679245,1.51041667 9.73584906,1.359375 C9.43396226,1.20833333 9.28301887,1.20833333 8.98113208,1.05729167 C8.52830189,0.90625 8.1509434,0.90625 7.69811321,0.90625 C7.24528302,0.90625 6.94339623,0.90625 6.56603774,0.90625 C6.26415094,0.90625 5.96226415,1.05729167 5.81132075,1.20833333 C5.66037736,1.359375 5.50943396,1.20833333 5.50943396,1.05729167 C5.50943396,0.755208333 5.50943396,0.453125 5.50943396,0.0755208333 C5.28301887,3.55271368e-15 5.13207547,3.55271368e-15 5.13207547,0.151041667 C5.13207547,0.604166667 5.13207547,0.90625 5.13207547,1.28385417 C5.13207547,1.43489583 5.13207547,1.43489583 5.13207547,1.5859375 C5.13207547,1.73697917 4.98113208,1.88802083 4.83018868,1.88802083 C4.52830189,1.88802083 4.37735849,2.0390625 4.0754717,2.0390625 C4.30188679,2.265625 4.45283019,2.56770833 4.60377358,2.71875 C5.05660377,3.171875 5.43396226,3.54947917 5.73584906,4.15364583 C5.88679245,4.3046875 5.88679245,4.45572917 5.88679245,4.60677083 C5.88679245,5.05989583 5.88679245,5.36197917 6.18867925,5.58854167 C6.49056604,6.04166667 6.94339623,6.41927083 7.32075472,6.87239583 C7.47169811,7.0234375 7.77358491,7.32552083 7.9245283,7.4765625 C8.0754717,7.62760417 8.0754717,7.77864583 8.0754717,7.9296875 C8.0754717,8.08072917 8.0754717,8.23177083 8.0754717,8.3828125 C8.0754717,8.68489583 8.22641509,8.8359375 8.37735849,9.13802083 C8.98113208,9.96875 9.50943396,10.875 9.96226415,11.7057292 C10.1132075,12.0078125 10.2641509,12.3098958 10.4150943,12.5364583 C10.7169811,12.8385417 10.8679245,13.140625 11.1698113,13.3671875 C11.4716981,13.8203125 11.9245283,14.1223958 12.3018868,14.5 C12.9056604,15.2552083 13.5849057,15.9348958 14.3396226,16.6901042 L14.6415094,16.8411458 C14.9433962,17.1432292 15.245283,17.4453125 15.4716981,17.8229167 C15.6226415,17.9739583 15.7735849,18.2760417 15.7735849,18.578125 C15.7735849,18.8802083 15.7735849,19.3333333 15.6226415,19.5598958 C15.6226415,20.0130208 15.4716981,20.390625 15.4716981,20.84375 C15.3207547,21.296875 15.3207547,21.6744792 15.1698113,22.1276042 C15.1698113,22.2786458 15.1698113,22.4296875 15.1698113,22.5807292 C15.0188679,23.0338542 15.0188679,23.4114583 14.8679245,23.8645833 C14.7169811,24.1666667 14.7169811,24.46875 14.7169811,24.8463542 C14.5660377,25.2994792 14.4150943,25.828125 14.2641509,26.28125 C14.1132075,26.5833333 13.9622642,26.734375 13.6603774,26.8854167 C13.2075472,27.1875 12.9056604,27.4895833 12.8301887,28.0182292 C12.8301887,28.4713542 12.8301887,29 12.9811321,29.453125 C12.9811321,29.6041667 12.9811321,29.6041667 12.9811321,29.7552083 C12.9811321,30.0572917 12.9811321,30.2083333 13.1320755,30.5104167 C13.2830189,30.9635417 13.1320755,31.265625 12.6792453,31.3411458 C12.3773585,31.4921875 12.0754717,31.4921875 11.6981132,31.6432292 C10.9433962,31.7942708 10.4150943,32.0963542 9.81132075,32.4739583 C9.50943396,32.7760417 9.35849057,33.078125 9.35849057,33.3046875 C9.35849057,33.7578125 9.20754717,34.1354167 9.20754717,34.5885417 C9.20754717,34.7395833 9.05660377,34.890625 8.75471698,35.0416667 C8.45283019,35.1927083 8.1509434,35.1927083 7.9245283,35.34375 C7.62264151,35.4947917 7.47169811,35.4947917 7.32075472,35.796875 C6.86792453,36.25 7.16981132,36.4010417 6.71698113,36.7786458 C6.81761006,36.7786458 6.23899371,37.0303819 4.98113208,37.5338542 C2.79245283,38.8177083 3.39622642,38.96875 2.71698113,39.2708333 C2.41509434,39.421875 2.11320755,39.1197917 1.58490566,39.5729167 C1.28301887,39.7239583 1.13207547,40.0260417 0.830188679,40.328125 C0.528301887,40.6302083 0.226415094,40.9322917 0.226415094,41.3098958 C0.150943396,41.5364583 0.150943396,41.8385417 0,42.2161458 C0,42.6692708 0,43.046875 0,43.3489583 C0,43.8020833 0,44.3307292 0.150943396,44.7838542 C0.301886792,45.2369792 0.452830189,45.6145833 0.754716981,45.9166667 C1.05660377,46.3697917 1.58490566,46.7473958 2.03773585,47.0494792 C3.01886792,47.6536458 4.45283019,47.8046875 5.50943396,48.3333333 C5.81132075,48.484375 6.11320755,48.6354167 6.33962264,48.6354167 C6.56603774,48.6354167 6.94339623,49.390625 7.09433962,49.4661458 C7.24528302,49.7682292 7.24528302,49.9192708 7.24528302,49.9192708 C7.39622642,50.0703125 7.39622642,50.2213542 7.39622642,50.3723958 C7.39622642,50.5234375 7.39622642,50.6744792 7.39622642,50.8255208 C7.39622642,51.1276042 7.39622642,51.4296875 7.39622642,51.8072917 C7.39622642,51.9583333 7.39622642,51.9583333 7.39622642,52.109375 C7.39622642,52.2604167 7.39622642,52.4114583 7.39622642,52.5625 C7.39622642,52.7135417 7.39622642,52.7135417 7.54716981,52.8645833 C7.69811321,53.015625 8,53.1666667 8.1509434,53.3177083 C8.45283019,53.46875 8.90566038,53.7708333 8.98113208,54.0729167 C9.05660377,54.375 9.43396226,54.6770833 9.43396226,54.9036458 C9.43396226,55.0546875 9.43396226,55.0546875 9.58490566,55.2057292 C9.58490566,55.3567708 9.73584906,55.3567708 9.73584906,55.5078125 C9.73584906,55.6588542 9.88679245,55.8098958 9.88679245,55.9609375 C10.0377358,56.2630208 10.0377358,56.7161458 10.1886792,56.9427083 C10.3396226,57.09375 10.1886792,57.3958333 10.1886792,57.546875 C10.1886792,57.8489583 10.1886792,58 10.3396226,58 C11.3207547,58 12.3773585,58 13.2075472,58 L13.8113208,58 C14.7169811,58 15.245283,58 16,58 C17.5849057,58 19.1698113,58 20.754717,58 C22.1886792,58 23.7735849,58 25.2075472,58 C26.7924528,58 28.5283019,58 30.1132075,58 C30.1132075,58 30.2641509,58 30.4150943,58 C31.6981132,58 32.9811321,58 34.1132075,58 C34.4150943,58 34.7169811,58 35.0943396,58 C36.2264151,58 37.3584906,58 38.5660377,58 C38.7169811,58 38.8679245,58 39.1698113,58 C42.3396226,57.8489583 45.509434,57.8489583 48.6792453,58 C49.6603774,58 50.8679245,58 51.8490566,58 C51.3962264,57.0182292 51.245283,56.8671875 51.0943396,56.8671875 L71.9765625,-26.046875 M4.45283019,45.6901042 C2.18867925,44.40625 3.01886792,43.4244792 3.16981132,42.5182292 C3.01886792,42.2161458 3.01886792,42.0651042 2.86792453,41.7630208 C3.16981132,42.0651042 3.16981132,42.2161458 3.16981132,42.5182292 C3.69811321,44.40625 4,45.2369792 4.45283019,45.6901042 C4.75471698,45.8411458 5.05660377,45.9921875 5.43396226,46.2942708 C5.05660377,46.1432292 4.75471698,46.1432292 4.45283019,45.6901042 M13.9622642,56.640625 C13.9622642,56.7916667 13.8113208,56.9427083 13.6603774,56.9427083 C13.509434,56.9427083 13.3584906,56.9427083 13.3584906,56.9427083 C13.0566038,56.9427083 12.9056604,56.9427083 12.6037736,56.7916667 C12.4528302,56.7916667 12.4528302,56.7916667 12.3018868,56.7916667 L12.1509434,56.7916667 C12.1509434,56.7916667 12.1509434,56.7916667 12.3018868,56.7916667 L12.4528302,56.7916667 C12.4528302,56.7916667 12.4528302,56.640625 12.3018868,56.640625 C12.1509434,56.3385417 11.8490566,56.1875 11.6981132,55.8854167 C11.3962264,55.5833333 11.245283,55.28125 11.0943396,54.9036458 C10.9433962,54.6015625 10.7924528,54.2994792 10.6415094,54.1484375 C10.6415094,53.9973958 10.6415094,53.8463542 10.490566,53.8463542 C10.490566,53.6953125 10.490566,53.6953125 10.6415094,53.6953125 C10.7924528,53.6953125 11.0943396,53.8463542 11.245283,53.8463542 C11.6981132,53.9973958 12,54.2994792 12.2264151,54.4505208 C12.3773585,54.6015625 12.6792453,54.7526042 12.8301887,54.9036458 C13.1320755,55.2057292 13.5849057,55.3567708 13.8113208,55.6588542 C13.8113208,55.6588542 13.8113208,55.6588542 13.8113208,55.9609375 C13.9622642,56.0364583 13.9622642,56.3385417 13.9622642,56.640625 M37.5849057,54.4505208 C37.5849057,54.6015625 37.4339623,54.6015625 37.4339623,54.6015625 C36.9811321,54.6015625 36.6037736,54.7526042 36.1509434,54.7526042 C36,54.9036458 35.8490566,54.9036458 35.6981132,54.9036458 C35.6981132,54.9036458 35.6981132,54.9036458 35.5471698,54.9036458 C35.3962264,55.0546875 35.245283,55.0546875 35.0943396,55.0546875 L34.9433962,55.0546875 C34.7924528,55.2057292 34.490566,55.2057292 34.3396226,55.2057292 C34.0377358,55.2057292 33.7358491,55.2057292 33.509434,55.2057292 C33.0566038,55.2057292 32.5283019,55.2057292 32.0754717,55.3567708 C31.9245283,55.3567708 31.9245283,55.3567708 31.7735849,55.3567708 C31.6226415,55.3567708 31.3207547,55.3567708 31.1698113,55.5078125 L31.0188679,55.5078125 C30.5660377,55.5078125 30.1886792,55.8098958 29.7358491,55.6588542 C29.5849057,55.8098958 29.2830189,55.8098958 29.1320755,55.8098958 C28.6792453,55.9609375 28.3018868,55.9609375 27.8490566,56.1119792 L27.6981132,56.1119792 C27.245283,56.1119792 26.7169811,56.2630208 26.2641509,56.2630208 C25.9622642,56.2630208 25.509434,56.2630208 25.2830189,56.4140625 C25.1320755,56.4140625 24.9811321,56.4140625 24.8301887,56.4140625 C23.8490566,56.4140625 22.9433962,56.4140625 21.9622642,56.4140625 L21.8113208,56.5651042 C21.6603774,56.5651042 21.6603774,56.5651042 21.509434,56.5651042 C19.9245283,56.7161458 18.490566,56.7161458 16.9056604,56.7161458 C16.754717,56.7161458 16.754717,56.7161458 16.6037736,56.5651042 C16.4528302,56.1119792 16.4528302,55.8098958 16.3018868,55.4322917 C16.3018868,55.28125 16.3018868,55.1302083 16.1509434,54.9791667 C16,54.828125 15.8490566,54.6770833 15.6981132,54.6770833 C15.245283,54.375 14.8679245,54.0729167 14.4150943,53.8463542 C14.2641509,53.6953125 14.2641509,53.6953125 14.2641509,53.5442708 C14.2641509,53.2421875 14.4150943,52.9401042 14.4150943,52.7135417 C14.4150943,52.4114583 14.2641509,52.109375 14.1132075,51.9583333 C13.6603774,51.5052083 13.2830189,50.9765625 12.9811321,50.3723958 C12.8301887,50.0703125 12.5283019,49.6171875 12.3773585,49.390625 C12.2264151,49.2395833 12.2264151,48.9375 12.2264151,48.7864583 C12.2264151,48.6354167 12.3773585,48.484375 12.3773585,48.484375 C12.8301887,48.3333333 13.1320755,48.03125 13.3584906,47.8802083 C13.6603774,47.7291667 14.1132075,47.4270833 14.3396226,47.125 C14.490566,46.9739583 14.7924528,46.671875 14.9433962,46.5208333 C14.9433962,46.3697917 15.0943396,46.3697917 15.245283,46.21875 C15.3962264,46.0677083 15.3962264,45.9166667 15.5471698,45.765625 C15.5471698,45.6145833 15.6981132,45.6145833 15.6981132,45.4635417 C15.6981132,45.3125 15.6981132,45.3125 15.6981132,45.1614583 C15.8490566,45.0104167 15.8490566,44.7083333 15.8490566,44.5572917 C15.8490566,44.40625 15.8490566,44.40625 16,44.40625 C17.2830189,44.40625 18.7169811,44.40625 20,44.40625 C20.1509434,44.40625 20.3018868,44.40625 20.3018868,44.7083333 C20.3018868,44.7083333 20.4528302,44.7083333 20.4528302,44.859375 C20.6037736,45.1614583 20.9056604,45.3125 21.2830189,45.3125 C21.7358491,45.3125 22.1132075,45.3125 22.5660377,45.3125 C22.8679245,45.3125 22.8679245,45.4635417 22.8679245,45.6145833 C22.8679245,45.765625 22.8679245,45.9166667 22.8679245,46.0677083 C22.8679245,46.3697917 23.0188679,46.5208333 23.3207547,46.5208333 C23.6226415,46.5208333 23.7735849,46.5208333 24.0754717,46.3697917 C24.2264151,46.3697917 24.5283019,46.3697917 24.6792453,46.3697917 C24.9811321,46.3697917 25.2830189,46.21875 25.6603774,46.21875 C25.9622642,46.21875 26.2641509,46.21875 26.4150943,46.3697917 L26.5660377,46.3697917 C27.0188679,46.3697917 27.3207547,46.3697917 27.6981132,46.3697917 C27.8490566,46.3697917 28.1509434,46.21875 28.1509434,46.0677083 C28.1509434,45.765625 28.1509434,45.765625 27.8490566,45.6145833 C27.5471698,45.4635417 27.0943396,45.4635417 26.8679245,45.3125 C26.5660377,45.1614583 26.4150943,45.1614583 26.1132075,45.0104167 L25.9622642,45.0104167 C25.509434,44.859375 25.2075472,44.5572917 24.9811321,44.2552083 C24.6792453,43.953125 24.5283019,43.953125 24.8301887,43.5 C25.1320755,42.8958333 25.5849057,42.6692708 26.1132075,42.3671875 C26.5660377,42.0651042 27.0943396,42.0651042 27.6981132,42.0651042 C28.1509434,42.0651042 28.5283019,42.0651042 28.8301887,42.0651042 C29.2830189,42.0651042 29.8113208,42.2161458 30.1132075,42.6692708 C30.2641509,42.6692708 30.2641509,42.8203125 30.4150943,42.8203125 C30.8679245,43.2734375 31.245283,43.6510417 31.6981132,44.1041667 C32,44.5572917 32.4528302,44.9348958 32.6792453,45.5390625 C32.9811321,45.9921875 33.1320755,46.3697917 33.4339623,46.671875 C33.5849057,46.9739583 33.7358491,47.4270833 34.0377358,47.6536458 C34.3396226,48.1067708 34.490566,48.484375 34.7924528,48.9375 C34.9433962,49.2395833 35.0943396,49.5416667 35.245283,49.7682292 C35.3962264,50.0703125 35.5471698,50.3723958 35.6981132,50.5989583 C35.8490566,50.75 35.8490566,51.0520833 36,51.203125 C36,51.3541667 36.1509434,51.5052083 36.1509434,51.65625 C36.3018868,51.9583333 36.4528302,52.2604167 36.4528302,52.4869792 C36.4528302,52.6380208 36.6037736,52.7890625 36.754717,52.7890625 C36.9056604,52.9401042 37.0566038,52.9401042 37.2075472,53.0911458 C37.3584906,53.0911458 37.509434,53.2421875 37.509434,53.2421875 C37.6603774,53.2421875 37.8113208,53.3932292 37.8113208,53.5442708 C37.7358491,53.8463542 37.5849057,54.1484375 37.5849057,54.4505208" id="Shape" fill="#2F2F2D" fill-rule="nonzero"></path>
        <g id="Group-4" transform="translate(66.000000, 4.000000)" fill-rule="nonzero">
            <g id="Group" fill="#F49C0E">
                <g transform="translate(0.000000, 5.563910)" id="SVGID_119_-link">
                    <g>
                        <path d="M0,4.65977444 L0,23.5075188 C0,26.2894737 2.07580518,27.8195489 4.56677141,27.8195489 C7.05773763,27.8195489 9.20273632,26.2894737 9.20273632,23.5075188 L9.20273632,19.8909774 L6.91935062,19.8909774 L6.91935062,23.5075188 C6.91935062,25.037594 5.81225452,25.9417293 4.4975779,25.9417293 C3.18290128,25.9417293 2.14499869,25.037594 2.14499869,23.5075188 L2.14499869,4.65977444 C2.14499869,3.12969925 3.18290128,2.15601504 4.4975779,2.15601504 C5.95064153,2.15601504 6.91935062,2.92105263 6.91935062,2.92105263 L6.91935062,8.27631579 L9.13354281,8.27631579 L9.13354281,1.7387218 C9.13354281,1.7387218 7.40370516,0.347744361 4.4975779,0.347744361 C2.00661168,0.347744361 0,1.94736842 0,4.65977444" id="SVGID_119_"></path>
                    </g>
                </g>
                <g transform="translate(10.379026, 5.563910)" id="SVGID_117_">
                    <path d="M8.57999476,0.486842105 L8.57999476,2.36466165 L9.68709086,2.36466165 L6.7117701,17.8740602 L6.64257659,17.8740602 L3.45967531,0.486842105 L0.345967531,0.486842105 L0.345967531,2.36466165 L1.52225714,2.36466165 L5.25870647,19.9605263 L5.95064153,19.9605263 L5.05112595,24.0639098 C4.77435192,25.1766917 4.22080388,25.8721805 3.11370778,25.8721805 L2.07580518,25.8721805 L2.07580518,27.75 L3.11370778,27.75 C5.39709348,27.75 6.7809636,26.4285714 7.26531815,24.1334586 L11.9012831,2.36466165 L13.0775727,2.36466165 L13.0775727,0.486842105 L8.57999476,0.486842105 Z"></path>
                </g>
                <g transform="translate(24.217727, 5.563910)" id="SVGID_115_-link">
                    <g>
                        <path d="M3.52886881,14.6052632 L5.88144802,14.6052632 C7.26531815,14.6052632 8.37241424,15.5093985 8.37241424,17.1785714 L8.37241424,23.2988722 C8.37241424,24.9680451 7.26531815,25.9417293 5.88144802,25.9417293 L3.52886881,25.9417293 L3.52886881,14.6052632 Z M3.52886881,2.36466165 L5.74306101,2.36466165 C7.12693113,2.36466165 8.23402723,3.33834586 8.23402723,5.0075188 L8.23402723,10.1541353 C8.23402723,11.8233083 7.12693113,12.7274436 5.74306101,12.7274436 L3.52886881,12.7274436 L3.52886881,2.36466165 Z M0.207580518,0.486842105 L0.207580518,2.36466165 L1.31467662,2.36466165 L1.31467662,25.8721805 L0.207580518,25.8721805 L0.207580518,27.75 L5.88144802,27.75 C8.44160775,27.75 10.5866064,26.0808271 10.5866064,23.2988722 L10.5866064,17.7349624 C10.5866064,15.6484962 9.47951034,14.2575188 7.8188662,13.6315789 C9.34112333,13.075188 10.5174129,11.6146617 10.5174129,9.59774436 L10.5174129,4.93796992 C10.5174129,2.08646617 8.37241424,0.486842105 5.81225452,0.486842105 L0.207580518,0.486842105 Z" id="SVGID_115_"></path>
                    </g>
                </g>
                <g transform="translate(37.364493, 5.563910)" id="SVGID_113_-link">
                    <g>
                        <path d="M2.76774025,23.4379699 L2.76774025,4.79887218 C2.76774025,3.12969925 3.87483634,2.22556391 5.25870647,2.22556391 C6.64257659,2.22556391 7.74967269,3.19924812 7.74967269,4.79887218 L7.74967269,23.4379699 C7.74967269,25.1071429 6.64257659,26.0112782 5.25870647,26.0112782 C3.87483634,26.0112782 2.76774025,25.1071429 2.76774025,23.4379699 M0.553548049,4.79887218 L0.553548049,23.4379699 C0.553548049,26.2894737 2.62935323,27.8890977 5.25870647,27.8890977 C7.8880597,27.8890977 9.96386489,26.2894737 9.96386489,23.4379699 L9.96386489,4.79887218 C9.96386489,1.94736842 7.8188662,0.347744361 5.25870647,0.347744361 C2.62935323,0.347744361 0.553548049,1.94736842 0.553548049,4.79887218" id="SVGID_113_"></path>
                    </g>
                </g>
                <g transform="translate(49.819324, 5.563910)" id="SVGID_111_-link">
                    <g>
                        <path d="M3.3904818,2.36466165 L5.604674,2.36466165 C6.98854412,2.36466165 8.09564022,3.33834586 8.09564022,5.0075188 L8.09564022,12.1710526 C8.09564022,13.8402256 6.98854412,14.7443609 5.604674,14.7443609 L3.3904818,14.7443609 L3.3904818,2.36466165 Z M0.0691935062,0.486842105 L0.0691935062,2.36466165 L1.1762896,2.36466165 L1.1762896,25.8721805 L0.0691935062,25.8721805 L0.0691935062,27.75 L4.4975779,27.75 L4.4975779,25.8721805 L3.3904818,25.8721805 L3.3904818,16.5526316 L5.604674,16.5526316 C8.16483373,16.5526316 10.3098324,14.9530075 10.3098324,12.1015038 L10.3098324,4.93796992 C10.3098324,2.08646617 8.16483373,0.486842105 5.604674,0.486842105 L0.0691935062,0.486842105 Z" id="SVGID_111_"></path>
                    </g>
                </g>
                <g transform="translate(62.966091, 5.563910)" id="SVGID_109_-link">
                    <g>
                        <path d="M2.83693375,23.4379699 L2.83693375,4.79887218 C2.83693375,3.12969925 3.94402985,2.22556391 5.32789997,2.22556391 C6.7117701,2.22556391 7.8188662,3.19924812 7.8188662,4.79887218 L7.8188662,23.4379699 C7.8188662,25.1071429 6.7117701,26.0112782 5.32789997,26.0112782 C3.94402985,26.0112782 2.83693375,25.1071429 2.83693375,23.4379699 M0.622741555,4.79887218 L0.622741555,23.4379699 C0.622741555,26.2894737 2.69854674,27.8890977 5.32789997,27.8890977 C7.8880597,27.8890977 10.0330584,26.2894737 10.0330584,23.4379699 L10.0330584,4.79887218 C10.0330584,1.94736842 7.8880597,0.347744361 5.32789997,0.347744361 C2.69854674,0.347744361 0.622741555,1.94736842 0.622741555,4.79887218" id="SVGID_109_"></path>
                    </g>
                </g>
                <g transform="translate(75.420922, 5.563910)" id="SVGID_107_-link">
                    <g>
                        <path d="M3.45967531,14.6052632 L5.81225452,14.6052632 C7.19612464,14.6052632 8.30322074,15.5093985 8.30322074,17.1785714 L8.30322074,23.2988722 C8.30322074,24.9680451 7.19612464,25.9417293 5.81225452,25.9417293 L3.45967531,25.9417293 L3.45967531,14.6052632 Z M3.45967531,2.36466165 L5.6738675,2.36466165 C7.05773763,2.36466165 8.16483373,3.33834586 8.16483373,5.0075188 L8.16483373,10.1541353 C8.16483373,11.8233083 7.05773763,12.7274436 5.6738675,12.7274436 L3.45967531,12.7274436 L3.45967531,2.36466165 Z M0.138387012,0.486842105 L0.138387012,2.36466165 L1.24548311,2.36466165 L1.24548311,25.8721805 L0.138387012,25.8721805 L0.138387012,27.75 L5.81225452,27.75 C8.44160775,27.75 10.5174129,26.0808271 10.5174129,23.2988722 L10.5174129,17.7349624 C10.5174129,15.6484962 9.41031684,14.2575188 7.74967269,13.6315789 C9.27192982,13.075188 10.4482194,11.6146617 10.4482194,9.59774436 L10.4482194,4.93796992 C10.4482194,2.08646617 8.30322074,0.486842105 5.74306101,0.486842105 L0.138387012,0.486842105 Z" id="SVGID_107_"></path>
                    </g>
                </g>
                <g transform="translate(88.567688, 5.563910)" id="SVGID_105_-link">
                    <g>
                        <path d="M0.415161037,4.65977444 L0.415161037,23.5075188 C0.415161037,26.2894737 2.49096622,27.8195489 4.98193244,27.8195489 C7.47289866,27.8195489 9.61789736,26.2894737 9.61789736,23.5075188 L9.61789736,19.8909774 L7.40370516,19.8909774 L7.40370516,23.5075188 C7.40370516,25.037594 6.29660906,25.9417293 4.98193244,25.9417293 C3.66725583,25.9417293 2.62935323,25.037594 2.62935323,23.5075188 L2.62935323,4.65977444 C2.62935323,3.12969925 3.73644933,2.15601504 4.98193244,2.15601504 C6.43499607,2.15601504 7.40370516,2.92105263 7.40370516,2.92105263 L7.40370516,8.27631579 L9.61789736,8.27631579 L9.61789736,1.7387218 C9.61789736,1.7387218 7.95725321,0.347744361 4.98193244,0.347744361 C2.49096622,0.347744361 0.415161037,1.94736842 0.415161037,4.65977444" id="SVGID_105_"></path>
                    </g>
                </g>
                <g transform="translate(100.330584, 5.563910)" id="SVGID_103_-link">
                    <g>
                        <polygon id="SVGID_103_" points="7.54209217 0.486842105 7.54209217 2.36466165 8.64918827 2.36466165 5.18951296 12.7969925 3.73644933 12.7969925 3.73644933 0.486842105 0.415161037 0.486842105 0.415161037 2.36466165 1.52225714 2.36466165 1.52225714 25.8721805 0.415161037 25.8721805 0.415161037 27.75 4.84354543 27.75 4.84354543 25.8721805 3.73644933 25.8721805 3.73644933 14.674812 5.18951296 14.674812 9.13354281 27.75 12.0396701 27.75 12.0396701 25.8721805 10.932574 25.8721805 6.91935062 13.7706767 10.794187 2.36466165 11.9704766 2.36466165 11.9704766 0.486842105"></polygon>
                    </g>
                </g>
                <g transform="translate(113.477350, 5.563910)" id="SVGID_101_-link">
                    <g>
                        <polygon id="SVGID_101_" points="8.64918827 0.486842105 8.64918827 2.43421053 3.45967531 20.3082707 3.45967531 20.3082707 3.45967531 0.486842105 0.207580518 0.486842105 0.207580518 2.36466165 1.31467662 2.36466165 1.31467662 25.8721805 0.207580518 25.8721805 0.207580518 27.75 3.45967531 27.75 3.45967531 25.8026316 8.57999476 7.85902256 8.64918827 7.85902256 8.64918827 27.75 11.9012831 27.75 11.9012831 25.8721805 10.794187 25.8721805 10.794187 2.36466165 11.9012831 2.36466165 11.9012831 0.486842105"></polygon>
                    </g>
                </g>
                <g transform="translate(127.316051, 0.000000)" id="SVGID_99_-link">
                    <g>
                        <path d="M8.51080126,6.05075188 L8.51080126,7.9981203 L3.3212883,25.8721805 L3.25209479,25.8721805 L3.25209479,6.05075188 L0,6.05075188 L0,7.92857143 L1.1070961,7.92857143 L1.1070961,31.4360902 L0,31.4360902 L0,33.3139098 L3.25209479,33.3139098 L3.25209479,31.3665414 L8.37241424,13.4924812 L8.44160775,13.4924812 L8.44160775,33.3139098 L11.6937025,33.3139098 L11.6937025,31.4360902 L10.5866064,31.4360902 L10.5866064,7.92857143 L11.6937025,7.92857143 L11.6937025,6.05075188 L8.51080126,6.05075188 Z M7.95725321,0.0695488722 C7.95725321,1.46052632 6.98854412,2.22556391 5.88144802,2.22556391 C4.77435192,2.22556391 3.87483634,1.46052632 3.87483634,0.0695488722 L2.2141922,0.0695488722 C2.2141922,2.29511278 3.87483634,3.61654135 5.88144802,3.61654135 C7.8880597,3.61654135 9.54870385,2.29511278 9.54870385,0.0695488722 L7.95725321,0.0695488722 Z" id="SVGID_99_"></path>
                    </g>
                </g>
            </g>
            <g id="Group" transform="translate(0.000000, 39.000000)" fill="#3C3C3B">
                <g id="SVGID_97_-link">
                    <g>
                        <path d="M3.00540541,0.458823529 L3.00540541,1.14705882 L3.38108108,1.14705882 L2.32918919,6.95882353 L1.12702703,0.458823529 L0,0.458823529 L0,1.14705882 L0.450810811,1.14705882 L1.80324324,7.72352941 L2.02864865,7.72352941 L1.65297297,9.25294118 C1.57783784,9.71176471 1.35243243,9.94117647 0.976756757,9.94117647 L0.601081081,9.94117647 L0.601081081,10.6294118 L0.976756757,10.6294118 C1.80324324,10.6294118 2.32918919,10.1705882 2.47945946,9.25294118 L4.20756757,1.14705882 L4.65837838,1.14705882 L4.65837838,0.458823529 L3.00540541,0.458823529 Z" id="SVGID_97_"></path>
                    </g>
                </g>
                <g transform="translate(6.762162, 0.000000)" id="SVGID_95_-link">
                    <g>
                        <polygon id="SVGID_95_" points="0.300540541 0.458823529 0.300540541 1.14705882 0.751351351 1.14705882 0.751351351 9.94117647 0.300540541 9.94117647 0.300540541 10.6294118 1.95351351 10.6294118 1.95351351 9.94117647 1.57783784 9.94117647 1.57783784 1.14705882 3.38108108 1.14705882 3.38108108 10.6294118 4.58324324 10.6294118 4.58324324 9.94117647 4.20756757 9.94117647 4.20756757 1.14705882 4.58324324 1.14705882 4.58324324 0.458823529"></polygon>
                    </g>
                </g>
                <g transform="translate(13.524324, 0.000000)" id="SVGID_93_-link">
                    <g>
                        <path d="M1.87837838,1.14705882 L2.70486486,1.14705882 C3.23081081,1.14705882 3.60648649,1.52941176 3.60648649,2.14117647 L3.60648649,4.81764706 C3.60648649,5.42941176 3.15567568,5.81176471 2.70486486,5.81176471 L1.87837838,5.81176471 L1.87837838,1.14705882 Z M0.676216216,0.458823529 L0.676216216,1.14705882 L1.12702703,1.14705882 L1.12702703,9.94117647 L0.676216216,9.94117647 L0.676216216,10.6294118 L2.32918919,10.6294118 L2.32918919,9.94117647 L1.87837838,9.94117647 L1.87837838,6.5 L2.70486486,6.5 C3.68162162,6.5 4.43297297,5.88823529 4.43297297,4.81764706 L4.43297297,2.14117647 C4.43297297,1.07058824 3.68162162,0.458823529 2.70486486,0.458823529 L0.676216216,0.458823529 Z" id="SVGID_93_"></path>
                    </g>
                </g>
                <g transform="translate(19.535135, 0.000000)" id="SVGID_91_-link">
                    <g>
                        <path d="M3.00540541,1.45294118 L3.75675676,7.18823529 L2.25405405,7.18823529 L3.00540541,1.45294118 Z M2.02864865,0.458823529 L2.02864865,1.14705882 L2.40432432,1.14705882 L1.05189189,9.94117647 L0.601081081,9.94117647 L0.601081081,10.6294118 L2.25405405,10.6294118 L2.25405405,9.94117647 L1.80324324,9.94117647 L2.10378378,7.87647059 L3.75675676,7.87647059 L4.13243243,10.6294118 L5.33459459,10.6294118 L5.33459459,9.94117647 L4.88378378,9.94117647 L3.53135135,0.458823529 L2.02864865,0.458823529 Z" id="SVGID_91_"></path>
                    </g>
                </g>
                <g transform="translate(27.048649, 0.000000)" id="SVGID_89_-link">
                    <g>
                        <path d="M1.5027027,5.73529412 L2.32918919,5.73529412 C2.85513514,5.73529412 3.23081081,6.11764706 3.23081081,6.72941176 L3.23081081,9.02352941 C3.23081081,9.63529412 2.78,10.0176471 2.32918919,10.0176471 L1.5027027,10.0176471 L1.5027027,5.73529412 Z M1.5027027,1.14705882 L2.32918919,1.14705882 C2.85513514,1.14705882 3.23081081,1.52941176 3.23081081,2.14117647 L3.23081081,4.05294118 C3.23081081,4.66470588 2.78,4.97058824 2.32918919,4.97058824 L1.5027027,4.97058824 L1.5027027,1.14705882 Z M0.225405405,0.458823529 L0.225405405,1.14705882 L0.601081081,1.14705882 L0.601081081,9.94117647 L0.225405405,9.94117647 L0.225405405,10.6294118 L2.32918919,10.6294118 C3.30594595,10.6294118 4.0572973,10.0176471 4.0572973,8.94705882 L4.0572973,6.88235294 C4.0572973,6.11764706 3.68162162,5.58235294 3.08054054,5.35294118 C3.68162162,5.12352941 4.0572973,4.58823529 4.0572973,3.82352941 L4.0572973,2.06470588 C4.0572973,0.994117647 3.30594595,0.382352941 2.32918919,0.382352941 L0.225405405,0.382352941 L0.225405405,0.458823529 Z" id="SVGID_89_"></path>
                    </g>
                </g>
                <g transform="translate(33.810811, 0.000000)" id="SVGID_87_-link">
                    <g>
                        <path d="M0.676216216,0.458823529 L0.676216216,1.14705882 L1.05189189,1.14705882 L1.05189189,8.79411765 C1.05189189,9.55882353 0.751351351,10.0176471 0.300540541,10.0176471 L0.300540541,10.7058824 C1.20216216,10.7058824 1.87837838,10.0176471 1.87837838,8.79411765 L1.87837838,1.14705882 L3.45621622,1.14705882 L3.45621622,10.5529412 L4.65837838,10.5529412 L4.65837838,9.94117647 L4.2827027,9.94117647 L4.2827027,1.14705882 L4.65837838,1.14705882 L4.65837838,0.458823529 L0.676216216,0.458823529 Z" id="SVGID_87_"></path>
                    </g>
                </g>
                <g transform="translate(40.572973, 0.000000)" id="SVGID_85_-link">
                    <g>
                        <path d="M1.65297297,4.51176471 L1.65297297,2.14117647 C1.65297297,1.52941176 2.02864865,1.14705882 2.55459459,1.14705882 L3.38108108,1.14705882 L3.38108108,5.50588235 L2.55459459,5.50588235 C2.10378378,5.50588235 1.65297297,5.12352941 1.65297297,4.51176471 Z M2.55459459,0.458823529 C1.57783784,0.458823529 0.826486486,1.07058824 0.826486486,2.14117647 L0.826486486,4.51176471 C0.826486486,5.27647059 1.2772973,5.81176471 1.87837838,5.96470588 L0.751351351,9.94117647 L0.375675676,9.94117647 L0.375675676,10.6294118 L1.95351351,10.6294118 L1.95351351,9.94117647 L1.5027027,9.94117647 L2.55459459,6.19411765 L3.38108108,6.19411765 L3.38108108,10.6294118 L4.58324324,10.6294118 L4.58324324,9.94117647 L4.20756757,9.94117647 L4.20756757,1.14705882 L4.58324324,1.14705882 L4.58324324,0.458823529 L2.55459459,0.458823529 Z" id="SVGID_85_"></path>
                    </g>
                </g>
                <g transform="translate(47.335135, 0.000000)" id="SVGID_83_-link">
                    <g>
                        <path d="M3.75675676,9.02352941 L3.75675676,2.06470588 C3.75675676,1.45294118 4.13243243,1.07058824 4.65837838,1.07058824 C5.18432432,1.07058824 5.56,1.45294118 5.56,2.06470588 L5.56,9.02352941 C5.56,9.63529412 5.10918919,10.0176471 4.65837838,10.0176471 C4.13243243,9.94117647 3.75675676,9.63529412 3.75675676,9.02352941 M2.93027027,2.06470588 L2.93027027,5.12352941 L1.87837838,5.12352941 L1.87837838,0.458823529 L0.676216216,0.458823529 L0.676216216,1.14705882 L1.05189189,1.14705882 L1.05189189,9.94117647 L0.676216216,9.94117647 L0.676216216,10.6294118 L2.32918919,10.6294118 L2.32918919,9.94117647 L1.87837838,9.94117647 L1.87837838,5.81176471 L2.93027027,5.81176471 L2.93027027,9.02352941 C2.93027027,10.0941176 3.68162162,10.7058824 4.65837838,10.7058824 C5.63513514,10.7058824 6.38648649,10.0941176 6.38648649,9.02352941 L6.38648649,2.06470588 C6.38648649,0.994117647 5.63513514,0.382352941 4.65837838,0.382352941 C3.68162162,0.382352941 2.93027027,0.994117647 2.93027027,2.06470588" id="SVGID_83_"></path>
                    </g>
                </g>
                <g transform="translate(56.351351, 0.000000)" id="SVGID_81_-link">
                    <g>
                        <polygon id="SVGID_81_" points="5.56 0.458823529 5.56 1.14705882 5.93567568 1.14705882 5.93567568 9.94117647 4.20756757 9.94117647 4.20756757 0.458823529 3.00540541 0.458823529 3.00540541 1.14705882 3.38108108 1.14705882 3.38108108 9.94117647 1.65297297 9.94117647 1.65297297 0.458823529 0.450810811 0.458823529 0.450810811 1.14705882 0.826486486 1.14705882 0.826486486 9.94117647 0.450810811 9.94117647 0.450810811 10.6294118 6.61189189 10.6294118 6.61189189 12.3882353 7.43837838 12.3882353 7.43837838 9.94117647 6.76216216 9.94117647 6.76216216 1.14705882 7.21297297 1.14705882 7.21297297 0.458823529"></polygon>
                    </g>
                </g>
                <g transform="translate(66.118919, 0.000000)" id="SVGID_79_-link">
                    <g>
                        <path d="M2.47945946,1.45294118 L3.23081081,7.18823529 L1.72810811,7.18823529 L2.47945946,1.45294118 Z M1.5027027,0.458823529 L1.5027027,1.14705882 L1.87837838,1.14705882 L0.525945946,9.94117647 L0.15027027,9.94117647 L0.15027027,10.6294118 L1.80324324,10.6294118 L1.80324324,9.94117647 L1.35243243,9.94117647 L1.65297297,7.87647059 L3.30594595,7.87647059 L3.68162162,10.6294118 L4.88378378,10.6294118 L4.88378378,9.94117647 L4.43297297,9.94117647 L3.00540541,0.458823529 L1.5027027,0.458823529 Z" id="SVGID_79_"></path>
                    </g>
                </g>
                <g transform="translate(72.881081, 0.000000)" id="SVGID_77_-link">
                    <g>
                        <path d="M1.42756757,4.51176471 L1.42756757,2.14117647 C1.42756757,1.52941176 1.87837838,1.14705882 2.32918919,1.14705882 L3.15567568,1.14705882 L3.15567568,5.50588235 L2.32918919,5.50588235 C1.87837838,5.50588235 1.42756757,5.12352941 1.42756757,4.51176471 Z M2.40432432,0.458823529 C1.42756757,0.458823529 0.676216216,1.07058824 0.676216216,2.14117647 L0.676216216,4.51176471 C0.676216216,5.27647059 1.12702703,5.81176471 1.72810811,5.96470588 L0.525945946,9.86470588 L0.0751351351,9.86470588 L0.0751351351,10.5529412 L1.65297297,10.5529412 L1.65297297,9.94117647 L1.2772973,9.94117647 L2.32918919,6.19411765 L3.15567568,6.19411765 L3.15567568,10.6294118 L4.35783784,10.6294118 L4.35783784,9.94117647 L3.98216216,9.94117647 L3.98216216,1.14705882 L4.35783784,1.14705882 L4.35783784,0.458823529 L2.40432432,0.458823529 Z" id="SVGID_77_"></path>
                    </g>
                </g>
                <g transform="translate(84.151351, 0.000000)" id="SVGID_75_-link">
                    <g>
                        <polygon id="SVGID_75_" points="2.93027027 0.458823529 2.93027027 1.14705882 3.30594595 1.14705882 2.02864865 5.04705882 1.5027027 5.04705882 1.5027027 0.458823529 0.300540541 0.458823529 0.300540541 1.14705882 0.676216216 1.14705882 0.676216216 9.94117647 0.300540541 9.94117647 0.300540541 10.6294118 1.87837838 10.6294118 1.87837838 9.94117647 1.5027027 9.94117647 1.5027027 5.73529412 2.02864865 5.73529412 3.45621622 10.6294118 4.58324324 10.6294118 4.58324324 9.94117647 4.13243243 9.94117647 2.62972973 5.42941176 4.0572973 1.14705882 4.50810811 1.14705882 4.50810811 0.458823529"></polygon>
                    </g>
                </g>
                <g transform="translate(90.913514, 0.000000)" id="SVGID_73_-link">
                    <g>
                        <path d="M1.42756757,9.02352941 L1.42756757,2.06470588 C1.42756757,1.45294118 1.87837838,1.07058824 2.32918919,1.07058824 C2.85513514,1.07058824 3.23081081,1.45294118 3.23081081,2.06470588 L3.23081081,9.02352941 C3.23081081,9.63529412 2.85513514,10.0176471 2.32918919,10.0176471 C1.80324324,9.94117647 1.42756757,9.63529412 1.42756757,9.02352941 M0.601081081,2.06470588 L0.601081081,9.02352941 C0.601081081,10.0941176 1.35243243,10.7058824 2.32918919,10.7058824 C3.30594595,10.7058824 4.0572973,10.0941176 4.0572973,9.02352941 L4.0572973,2.06470588 C4.0572973,0.994117647 3.30594595,0.382352941 2.32918919,0.382352941 C1.35243243,0.382352941 0.601081081,0.994117647 0.601081081,2.06470588" id="SVGID_73_"></path>
                    </g>
                </g>
                <g transform="translate(97.675676, 0.000000)" id="SVGID_71_-link">
                    <g>
                        <polygon id="SVGID_71_" points="4.88378378 0.458823529 3.38108108 9.32941176 3.38108108 9.32941176 1.95351351 0.458823529 0.300540541 0.458823529 0.300540541 1.14705882 0.751351351 1.14705882 0.751351351 9.94117647 0.300540541 9.94117647 0.300540541 10.6294118 1.87837838 10.6294118 1.87837838 9.94117647 1.5027027 9.94117647 1.5027027 1.91176471 1.5027027 1.91176471 2.93027027 10.6294118 3.90702703 10.6294118 5.25945946 1.91176471 5.33459459 1.91176471 5.33459459 10.6294118 6.53675676 10.6294118 6.53675676 9.94117647 6.08594595 9.94117647 6.08594595 1.14705882 6.53675676 1.14705882 6.53675676 0.458823529"></polygon>
                    </g>
                </g>
                <g transform="translate(106.691892, 0.000000)" id="SVGID_69_-link">
                    <g>
                        <polygon id="SVGID_69_" points="0.300540541 0.458823529 0.300540541 1.14705882 0.676216216 1.14705882 0.676216216 9.94117647 0.300540541 9.94117647 0.300540541 10.6294118 1.95351351 10.6294118 1.95351351 9.94117647 1.5027027 9.94117647 1.5027027 1.14705882 3.38108108 1.14705882 3.38108108 10.6294118 4.58324324 10.6294118 4.58324324 9.94117647 4.20756757 9.94117647 4.20756757 1.14705882 4.58324324 1.14705882 4.58324324 0.458823529"></polygon>
                    </g>
                </g>
                <g transform="translate(113.454054, 0.000000)" id="SVGID_67_-link">
                    <g>
                        <path d="M2.62972973,1.45294118 L3.38108108,7.18823529 L1.87837838,7.18823529 L2.62972973,1.45294118 Z M1.65297297,0.458823529 L1.65297297,1.14705882 L2.02864865,1.14705882 L0.676216216,9.94117647 L0.225405405,9.94117647 L0.225405405,10.6294118 L1.87837838,10.6294118 L1.87837838,9.94117647 L1.5027027,9.94117647 L1.80324324,7.87647059 L3.45621622,7.87647059 L3.83189189,10.6294118 L5.03405405,10.6294118 L5.03405405,9.94117647 L4.50810811,9.94117647 L3.15567568,0.458823529 L1.65297297,0.458823529 Z" id="SVGID_67_"></path>
                    </g>
                </g>
                <g transform="translate(120.216216, 0.000000)" id="SVGID_65_-link">
                    <g>
                        <polygon id="SVGID_65_" points="3.30594595 0.458823529 3.30594595 1.14705882 3.68162162 1.14705882 3.68162162 5.04705882 1.87837838 5.04705882 1.87837838 0.458823529 0.601081081 0.458823529 0.601081081 1.14705882 1.05189189 1.14705882 1.05189189 9.94117647 0.601081081 9.94117647 0.601081081 10.6294118 2.25405405 10.6294118 2.25405405 9.94117647 1.87837838 9.94117647 1.87837838 5.73529412 3.68162162 5.73529412 3.68162162 10.6294118 4.88378378 10.6294118 4.88378378 9.94117647 4.50810811 9.94117647 4.50810811 1.14705882 4.88378378 1.14705882 4.88378378 0.458823529"></polygon>
                    </g>
                </g>
                <g transform="translate(127.729730, 0.000000)" id="SVGID_63_-link">
                    <g>
                        <polygon id="SVGID_63_" points="3.30594595 0.458823529 3.30594595 1.22352941 1.42756757 7.87647059 1.42756757 7.87647059 1.42756757 0.458823529 0.225405405 0.458823529 0.225405405 1.14705882 0.601081081 1.14705882 0.601081081 9.94117647 0.225405405 9.94117647 0.225405405 10.6294118 1.42756757 10.6294118 1.42756757 9.86470588 3.30594595 3.21176471 3.30594595 3.21176471 3.30594595 10.6294118 4.50810811 10.6294118 4.50810811 9.94117647 4.13243243 9.94117647 4.13243243 1.14705882 4.50810811 1.14705882 4.50810811 0.458823529"></polygon>
                    </g>
                </g>
                <g transform="translate(134.491892, 0.000000)" id="SVGID_61_-link">
                    <g>
                        <path d="M1.5027027,4.51176471 L1.5027027,2.14117647 C1.5027027,1.52941176 1.87837838,1.14705882 2.40432432,1.14705882 L3.23081081,1.14705882 L3.23081081,5.50588235 L2.40432432,5.50588235 C1.95351351,5.50588235 1.5027027,5.12352941 1.5027027,4.51176471 Z M2.47945946,0.458823529 C1.5027027,0.458823529 0.751351351,1.07058824 0.751351351,2.14117647 L0.751351351,4.51176471 C0.751351351,5.27647059 1.20216216,5.81176471 1.80324324,5.96470588 L0.601081081,9.86470588 L0.15027027,9.86470588 L0.15027027,10.5529412 L1.72810811,10.5529412 L1.72810811,9.94117647 L1.35243243,9.94117647 L2.40432432,6.19411765 L3.23081081,6.19411765 L3.23081081,10.6294118 L4.43297297,10.6294118 L4.43297297,9.94117647 L4.0572973,9.94117647 L4.0572973,1.14705882 L4.43297297,1.14705882 L4.43297297,0.458823529 L2.47945946,0.458823529 Z" id="SVGID_61_"></path>
                    </g>
                </g>
            </g>
        </g>
    </g>
</svg>